<svg xmlns="http://www.w3.org/2000/svg" viewBox="0 0 438 437.01"><g id="Layer_2" data-name="Layer 2"><g id="Layer_1-2" data-name="Layer 1"><polygon points="117.69 290.44 117.69 437.01 82.95 437.01 31.07 348.19 31.07 437.01 0 437.01 0 290.44 33.52 290.44 86.38 380.98 86.38 290.44 117.69 290.44"/><path d="M186.24,290.44a52,52,0,0,0-52.11,52.12v42.33a52.12,52.12,0,1,0,104.23,0V342.56A52,52,0,0,0,186.24,290.44Zm21,94.21A20.85,20.85,0,0,1,185,405.45c-11-.74-19.57-10.53-19.57-21.54V343.3c0-11,8.31-20.8,19.57-21.54a21,21,0,0,1,22.27,20.8Z"/><polygon points="438 290.44 396.65 437.01 364.59 437.01 340.37 348.92 315.66 437.01 283.11 437.01 243.23 290.44 275.53 290.44 299.51 378.29 324.46 290.44 356.76 290.44 356.76 290.44 380.74 378.29 405.46 290.44 438 290.44"/><line x1="93.34" y1="85.41" x2="91.58" y2="85.41"/><path d="M279.46,231.58a99.7,99.7,0,0,1-165.81-41.22,96.64,96.64,0,0,1-3.31-14.58,100.55,100.55,0,0,1,3.18-43.56l27.08,13.29,10,4.9c-.22,1.19-.41,2.38-.54,3.58a59.35,59.35,0,1,0,51.82-51.83l36.39-36.39a99.72,99.72,0,0,1,41.22,165.81Z"/><polygon points="286.13 0 245.61 40.52 223.66 62.48 168.25 117.86 154.32 77.67 153.57 75.48 188.51 40.52 141.45 40.52 127.41 0 286.13 0"/></g></g></svg>